<?xml version="1.0" standalone="no"?>
<!DOCTYPE svg PUBLIC "-//W3C//DTD SVG 1.1//EN" "http://www.w3.org/Graphics/SVG/1.1/DTD/svg11.dtd" >
<svg xmlns="http://www.w3.org/2000/svg">
<metadata></metadata>
<defs>
<font id="andersregular" horiz-adv-x="802" >
<font-face units-per-em="2048" ascent="1638" descent="-410" />
<missing-glyph horiz-adv-x="500" />
<glyph horiz-adv-x="0" />
<glyph unicode="&#xd;" />
<glyph />
<glyph />
<glyph unicode=" " />
<glyph unicode="," />
<glyph unicode="-" />
<glyph unicode="." horiz-adv-x="659" d="M328 82q0 29 19.5 48.5t47.5 19.5q29 0 48.5 -19.5t19.5 -48.5t-19.5 -48.5t-48.5 -19.5t-48 19.5t-19 48.5z" />
<glyph unicode="/" />
<glyph unicode="0" />
<glyph unicode="1" />
<glyph unicode="2" />
<glyph unicode="3" />
<glyph unicode="4" />
<glyph unicode="5" />
<glyph unicode="6" />
<glyph unicode="7" />
<glyph unicode="8" />
<glyph unicode="9" />
<glyph unicode=":" />
<glyph unicode=";" />
<glyph unicode="&#x3c;" />
<glyph unicode="=" />
<glyph unicode="&#x3e;" />
<glyph unicode="?" />
<glyph unicode="@" />
<glyph unicode="A" horiz-adv-x="1468" d="M33 33q0 2 24.5 67.5t64.5 170t92 239.5t106.5 277.5t108.5 281.5t98 255t75 194.5t39 101.5q8 18 31 18t28 -18q8 -23 40 -101.5t77 -194.5t101.5 -255t112.5 -281.5t110.5 -277.5t95.5 -240.5t66.5 -171t25.5 -67.5q0 -12 -9 -21.5t-22 -9.5q-25 0 -30 20l-596 1504 l-68 -174q8 -16 35 -82t65.5 -161t84 -211t92.5 -234.5t91 -231.5t77.5 -201t54 -142t20.5 -56q0 -23 -20 -29q-4 0 -6 -1t-6 -1q-20 0 -29 20l-492 1242l-477 -1242q-8 -20 -31 -20q-4 0 -5 1t-5 1q-20 6 -20 31z" />
<glyph unicode="B" horiz-adv-x="1495" d="M180 31v1577q0 30 31 30h2h617q82 0 154.5 -30.5t125.5 -85t85 -126t32 -153.5q0 -113 -58.5 -208t-162.5 -144q70 -23 129 -66t100 -100t64.5 -125.5t23.5 -142.5q0 -94 -35.5 -177t-97 -144.5t-144.5 -97.5t-177 -36h-455q-16 0 -23.5 12.5t-7.5 26.5v1536h-135v-1546 q0 -14 -11.5 -22.5t-23.5 -8.5t-22.5 9t-10.5 22zM443 63h426q82 0 152.5 31t123.5 84t84 125t31 154q0 80 -31 151.5t-84 124.5t-125 84t-151 31q-8 0 -11 2h-415v-787zM443 911h387q68 0 129 27t106 72t71.5 105t26.5 128q0 70 -26.5 130.5t-71.5 105.5t-105.5 71.5 t-129.5 26.5h-387v-666z" />
<glyph unicode="C" horiz-adv-x="1392" d="M0 819q0 170 64.5 319.5t175 260t260 175t319.5 64.5q72 0 146.5 -13t145.5 -39.5t135.5 -64.5t117.5 -89q12 -12 12 -25q0 -12 -11 -22.5t-24 -10.5q-12 0 -20 8q-59 45 -116.5 81t-117 60.5t-126 38t-142.5 13.5q-156 0 -293 -59.5t-240.5 -163t-163 -240.5t-59.5 -293 t59.5 -293t163 -240.5t241 -163t292.5 -59.5q147 0 268 50.5t234 142.5q10 10 22 10t22.5 -11.5t10.5 -23.5t-12 -24q-111 -104 -254 -155.5t-291 -51.5q-170 0 -319.5 64.5t-260 175t-175 260t-64.5 319.5z" />
<glyph unicode="D" horiz-adv-x="1656" d="M172 33v1571q0 14 9.5 24t23.5 10h473q168 0 317.5 -64.5t260 -175t175 -260t64.5 -317.5q0 -170 -64.5 -318.5t-175 -259t-260 -174t-317.5 -65.5l-268 -2q-14 0 -23.5 10.5t-9.5 24.5v1536h-141v-1540q0 -33 -33 -33q-14 0 -22.5 10t-8.5 23zM441 68h118.5t118.5 2 q156 2 293 61t239.5 160.5t162 237.5t59.5 292t-59.5 294t-161 239.5t-239.5 161t-294 59.5q-59 0 -118.5 -1t-118.5 -1v-1505z" />
<glyph unicode="E" horiz-adv-x="1259" d="M158 35v1573q0 14 10 22t23 8h1003q12 0 21.5 -9t9.5 -21t-9.5 -21.5t-21.5 -9.5h-975v-637h760q12 0 21.5 -9t9.5 -22q0 -12 -9.5 -21t-21.5 -9h-756l-2 -140h766q33 0 33 -32q0 -12 -10 -22.5t-23 -10.5h-768v-604h975q12 0 21.5 -11.5t9.5 -23.5t-8 -23.5t-23 -11.5 h-1003q-14 0 -23.5 10t-9.5 25z" />
<glyph unicode="F" horiz-adv-x="1214" d="M135 33v1575q0 30 31 30h2h1004h2q30 0 30 -30q0 -31 -32 -31h-971v-637h756q12 0 22 -8t10 -23q0 -31 -32 -30h-756v-136h766q14 0 23.5 -10t9.5 -24q0 -12 -10.5 -22.5t-22.5 -10.5h-766v-643q0 -33 -33 -33q-12 0 -22.5 10t-10.5 23z" />
<glyph unicode="G" horiz-adv-x="1624" d="M139 819q0 170 64.5 319.5t175.5 260t260.5 175t319.5 64.5q147 0 289.5 -51t252.5 -155q12 -12 13 -23q0 -14 -10.5 -25.5t-24.5 -11.5q-10 0 -21 10q-111 92 -231.5 142.5t-267.5 50.5q-156 0 -293 -59.5t-240.5 -163t-163 -240.5t-59.5 -293t59.5 -293t163 -240.5 t240.5 -163t293 -59.5q135 0 261 48.5t230 134.5l2 434h-780q-14 0 -23.5 10t-9.5 25q0 12 9.5 22.5t23.5 10.5h811q33 0 33 -35l-2 -482q0 -14 -11 -24q-111 -104 -254 -155.5t-290 -51.5q-170 0 -319.5 64.5t-260.5 175t-175.5 260t-64.5 319.5zM643 915q0 14 10.5 22.5 t22.5 8.5h799q12 0 21 -9.5t9 -21.5t-8 -22t-22 -10h-799q-33 0 -33 32z" />
<glyph unicode="H" horiz-adv-x="1652" d="M286 33v1575q0 12 9.5 21t21.5 9t21.5 -9t9.5 -21v-670h962v670q0 14 11.5 22t23.5 8t22.5 -9t10.5 -21v-1575q0 -12 -10.5 -22.5t-22.5 -10.5q-14 0 -24.5 9t-10.5 24v643h-962v-643q0 -33 -31 -33q-14 0 -22.5 10t-8.5 23zM350 741h960v138h-958z" />
<glyph unicode="I" horiz-adv-x="624" d="M286 31v1577q0 12 9.5 21t21.5 9t22.5 -8t10.5 -22v-1577q0 -14 -10.5 -22.5t-22.5 -8.5t-21.5 9t-9.5 22z" />
<glyph unicode="J" horiz-adv-x="1286" d="M144 170q0 10 11 21.5t23 11.5q8 0 33 -21.5t67 -48.5t100 -48.5t136 -21.5q92 0 173 35t141.5 95.5t95.5 141.5t35 173v1100q0 12 9 21t21 9t20.5 -9t8.5 -21v-1100q0 -104 -40 -196.5t-108.5 -162t-160.5 -109.5t-197 -40q-100 0 -194.5 39t-163.5 111q-10 10 -10 20z " />
<glyph unicode="K" horiz-adv-x="1302" d="M152 45v1552q0 14 10 22.5t23 8.5q12 0 22 -9t10 -22v-753l785 786q10 10 20 10q12 0 22.5 -11t10.5 -21q0 -12 -10 -23l-828 -829v-189q8 8 33 34t55.5 58.5t66.5 67.5t66.5 64.5t53 49t28.5 19.5q18 0 29 -12q12 -18 60.5 -85t113 -155t136 -186t132 -183t99.5 -143.5 t39 -66.5q0 -12 -11.5 -20.5t-21.5 -8.5q-16 0 -25 12l-551 770l-303 -303v-434q0 -12 -10 -21.5t-22 -9.5t-22.5 8.5t-10.5 22.5z" />
<glyph unicode="L" horiz-adv-x="1230" d="M146 31v1566q0 12 9 21.5t21 9.5t21.5 -9t9.5 -22v-1536h137v1545q0 12 10.5 22t22.5 10q33 0 33 -32v-1545h739q33 1 33 -30t-33 -31h-973q-31 0 -30 31z" />
<glyph unicode="M" horiz-adv-x="2174" d="M282 41v1221q0 14 8.5 26t24.5 12t25 -14q14 -20 60 -82.5t110.5 -152.5t143.5 -199t159 -220.5t154.5 -217t133 -188.5t93 -136t34.5 -59q0 -12 -10 -21.5t-22 -9.5q-16 0 -25 12l-823 1155v-1126q0 -14 -10.5 -22.5t-22.5 -8.5t-22.5 9.5t-10.5 21.5zM286 1602 q0 12 8.5 21t22.5 9q18 0 27 -14l749 -1045l750 1053q8 12 22 12q12 0 23.5 -8t11.5 -20q0 -10 -2 -13v-1566q0 -12 -9 -21.5t-22 -9.5q-12 0 -20 9t-8 22v1478l-707 -989q8 -14 37 -53t67 -91t81 -108.5t77.5 -106.5t58 -85t23.5 -43q0 -14 -10 -23.5t-22 -9.5 q-16 0 -25 12l-1126 1569q-6 8 -7 21z" />
<glyph unicode="N" horiz-adv-x="1744" d="M278 33v1235q0 10 10.5 20t20.5 10q14 0 27 -14q14 -20 59 -82.5t110.5 -153t143.5 -200t158 -220t154.5 -216t133 -188.5t93 -135t34.5 -58q0 -12 -10 -21.5t-22 -9.5q-16 0 -25 12l-821 1153v-1132q0 -12 -10.5 -22.5t-22.5 -10.5q-33 0 -33 33zM282 1597q0 33 31 33 q12 0 25 -14l1069 -1487v1479q0 12 9 21t21 9t21.5 -9t9.5 -21l2 -1575q0 -33 -33 -33q-16 0 -24 12l-1127 1567q-4 4 -4 18z" />
<glyph unicode="O" horiz-adv-x="1849" d="M49 819q0 170 64.5 319.5t175.5 260t260.5 175t319.5 64.5t319 -64.5t260 -175t175.5 -260t64.5 -319.5t-64.5 -319.5t-175.5 -260t-260.5 -175t-318.5 -64.5q-170 0 -319.5 64.5t-260.5 175t-175.5 260t-64.5 319.5zM113 819q0 -156 59.5 -293t162.5 -240.5t240.5 -163 t293.5 -59.5t293 59.5t240 163t162.5 240.5t59.5 293t-59.5 293t-162.5 240.5t-240.5 163t-292.5 59.5q-156 0 -293.5 -59.5t-240.5 -163t-162.5 -240.5t-59.5 -293z" />
<glyph unicode="P" horiz-adv-x="1306" d="M156 31v1575q0 32 29 32h2h616q82 0 153.5 -31.5t125 -85t85 -125t31.5 -153.5t-31.5 -153.5t-85 -126t-125 -85t-153.5 -30.5h-383v-807q0 -14 -11 -22.5t-24 -8.5q-12 0 -22.5 9.5t-10.5 21.5v1532h-133v-1542q0 -14 -10 -22.5t-22 -8.5t-21.5 9t-9.5 22zM420 909h383 q68 0 128 27t105.5 72t72 105t26.5 128t-26.5 128.5t-72 105.5t-105.5 71.5t-128 26.5h-383v-664z" />
<glyph unicode="Q" horiz-adv-x="1949" d="M156 827q0 168 63.5 315.5t174 258t258 174t315.5 63.5t316.5 -63.5t259 -173t174 -258t63.5 -316.5q0 -324 -225 -561q8 -12 34.5 -48t54 -74t49 -71.5t21.5 -41.5q0 -12 -9 -21.5t-21 -9.5q-18 0 -27 12q-10 14 -46 63.5t-83 115t-100.5 138t-97.5 136t-72.5 107.5 t-28.5 51q0 12 9 21t22 9q18 0 26 -14l230 -320q98 104 148 234.5t50 273.5q0 154 -59 290t-160.5 237.5t-238 161t-289.5 59.5q-154 0 -290 -59.5t-237.5 -161t-161 -237.5t-59.5 -290t59.5 -290t161 -237t237.5 -160.5t290 -59.5q88 0 172 21.5t164 56.5q-8 12 -36 49 t-63.5 87t-74.5 104.5t-73 102.5t-55.5 80.5t-21.5 39.5q0 12 9.5 22t23.5 10q18 0 27 -14q6 -10 39.5 -57t80.5 -114t100.5 -141.5t98.5 -138t74.5 -108.5t29.5 -49q0 -12 -9 -21.5t-21 -9.5t-25.5 13.5t-26 30.5t-23.5 34.5t-17 27.5q-86 -45 -180.5 -68.5t-192.5 -23.5 q-170 0 -317.5 63.5t-257 174t-173 258t-63.5 317.5z" />
<glyph unicode="R" horiz-adv-x="1368" d="M174 31v1577q0 30 29 30h2h594q78 0 145.5 -27.5t117.5 -76.5t79 -115.5t29 -144.5q0 -72 -25 -136.5t-68 -113.5t-103 -82t-132 -43q-10 -2 -21.5 -2h-21.5h-356l-2 -137h374q18 0 29 -19q6 -16 32.5 -73.5t62.5 -135t76 -163.5t73.5 -160t56.5 -124t23 -56 q0 -14 -10.5 -21.5t-22.5 -7.5q-20 0 -29 18l-311 678h-361v-655q0 -14 -10 -22.5t-22 -8.5t-21.5 9.5t-9.5 21.5v1536h-133v-1546q0 -14 -10.5 -22.5t-22.5 -8.5t-21.5 9t-9.5 22zM434 961h365q63 0 119.5 24.5t98.5 67.5t65.5 99t23.5 122q0 63 -24.5 118.5t-66.5 96.5 t-97.5 64.5t-118.5 23.5h-365v-616z" />
<glyph unicode="S" horiz-adv-x="1288" d="M-2 274q0 12 10 23.5t25 11.5q10 0 20 -10q127 -106 263.5 -171t306.5 -65q86 0 171 24t153.5 72t110.5 119.5t42 167.5q0 78 -37 134.5t-96.5 96.5t-136 66.5t-154.5 46t-152.5 34t-130.5 28.5q-68 18 -130 50t-109.5 79t-75 109.5t-27.5 140.5q0 104 48 181t125 127 t170 75.5t184 25.5q57 0 129.5 -12t145.5 -35.5t136.5 -56.5t106.5 -74q6 -6 9 -10t3 -14q0 -12 -10.5 -22.5t-22.5 -10.5q-4 0 -15 6t-24.5 15.5t-25 16.5t-17.5 11q-92 55 -196.5 88t-214.5 33q-78 0 -160 -19.5t-150.5 -60.5t-112.5 -105.5t-44 -154.5q0 -98 45 -160.5 t118.5 -102.5t168 -64.5t193.5 -47t193.5 -49.5t168 -73t118.5 -116.5t45 -181.5t-48 -193.5t-127 -137t-176 -82t-196 -27.5q-174 0 -329.5 67.5t-278.5 184.5q-12 12 -12 22z" />
<glyph unicode="T" horiz-adv-x="1384" d="M135 1409q0 12 8.5 23.5t22.5 11.5h1018q14 0 22.5 -11.5t8.5 -23.5t-9.5 -22.5t-21.5 -10.5h-475v-1345q0 -12 -10.5 -21.5t-22.5 -9.5t-22.5 8t-10.5 23v1345h-477q-12 0 -21.5 10.5t-9.5 22.5zM135 1608q0 12 9.5 21t21.5 9h1008q12 0 21 -9t9 -21t-9 -21.5t-21 -9.5 h-1008q-12 0 -21.5 9t-9.5 22z" />
<glyph unicode="U" horiz-adv-x="1529" d="M278 406v1202q0 12 9.5 21t21.5 9t21.5 -9t9.5 -21v-1202q0 -70 27.5 -132.5t74.5 -109.5t109.5 -75t132.5 -28h157q70 0 131.5 28t106.5 75t71.5 109.5t26.5 132.5v1202q0 12 9.5 21t21.5 9t21.5 -9t9.5 -21v-1202q0 -82 -31 -156t-85 -129t-127 -88t-155 -33h-157 q-84 0 -158 31.5t-129 87t-87 129.5t-32 158z" />
<glyph unicode="V" horiz-adv-x="1429" d="M0 1606q0 14 9 23t22 9q25 0 30 -20l476 -1237l489 1237q6 20 31 20q12 0 21 -9t9 -21q0 -4 -20 -57.5t-54 -140.5t-77 -198.5t-90 -229.5t-92 -232.5t-83 -210t-64.5 -161t-35.5 -83.5l66 -174l594 1497q6 20 31 20q12 0 21 -9t9 -21q0 -4 -25.5 -69.5t-66.5 -171 t-94 -240t-110.5 -276.5t-113 -281.5t-101.5 -254t-76.5 -193.5t-38.5 -102q-8 -20 -29 -20q-6 4 -15.5 8t-13.5 12q-8 20 -38.5 100.5t-74.5 195t-98.5 254t-110 281.5t-106.5 277.5t-91 240t-64.5 170t-24.5 67.5z" />
<glyph unicode="W" horiz-adv-x="2166" d="M278 373v1224q0 12 9.5 21.5t21.5 9.5t22.5 -8t10.5 -23v-1130l823 1155q8 14 27 14q12 0 21 -9t9 -23q0 -4 -34.5 -56.5t-93 -135.5t-133 -188.5t-154.5 -217t-158 -220t-143.5 -198.5t-110.5 -152.5t-59 -83.5q-8 -14 -25 -14q-16 0 -24.5 10t-8.5 25zM280 39 q0 6 45 72.5t120 171t170 237.5t197.5 273.5t203 278.5t182.5 252t140 194.5t75 105.5q8 12 22 12q12 0 23.5 -9t11.5 -23q0 -8 -23.5 -43t-58.5 -84.5t-77 -106.5t-80.5 -108.5t-67.5 -91.5t-37 -52l703 -987v1477q0 14 10 22t22 8t21.5 -9t9.5 -21v-1577q0 -12 -9 -21.5 t-22 -9.5q-16 0 -24 12l-750 1051l-749 -1043q-8 -14 -25 -14q-14 0 -23.5 10.5t-9.5 22.5z" />
<glyph unicode="X" horiz-adv-x="1579" d="M0 1608q0 12 9 21t24 9q14 0 24 -12q16 -25 73.5 -105.5t140.5 -195.5t184.5 -254t204 -280.5t198.5 -275.5t171 -239.5t120 -171t45 -71.5q0 -14 -10 -23.5t-23 -9.5q-16 0 -24 12l-500 697l-498 -697q-10 -12 -24 -12q-12 0 -22.5 9t-10.5 24q0 6 35 58t88 128 t117.5 163t122 166t100.5 138t55 76q-14 18 -64.5 85.5t-117 160t-140 195t-135 190.5t-102.5 147t-41 68zM250 1602q0 14 11 23t24 9q12 0 22 -12l455 -633l457 637q8 12 24 12q12 0 22.5 -8t10.5 -22q0 -8 -32 -56.5t-81 -118t-106.5 -150.5t-110.5 -153.5t-93 -126 t-52 -69.5l635 -885q8 -8 8 -20t-11.5 -20.5t-21.5 -8.5q-18 0 -27 12q-16 27 -73.5 108t-140.5 195.5t-183 252t-202.5 278.5t-199 274t-171 237.5t-119.5 171t-45 73.5z" />
<glyph unicode="Y" horiz-adv-x="1392" d="M-2 1610q0 12 11 20t24 8q14 0 24 -12l740 -1022q6 -10 6 -18v-555q0 -12 -9.5 -21.5t-21.5 -9.5t-21.5 9t-9.5 22v544q-16 23 -77.5 106t-144.5 195.5t-174 238.5t-169 233.5t-128 180.5t-50 81zM252 1602q0 14 11 23t24 9q12 0 22 -12l469 -651l445 653q8 14 26 14 q12 0 22.5 -9t10.5 -21q0 -8 -31.5 -58.5t-81 -124t-106.5 -158.5t-110.5 -162t-93.5 -133.5t-52 -72.5q-8 -14 -27 -14q-18 0 -30 16l-492 684q-6 6 -6 17z" />
<glyph unicode="Z" horiz-adv-x="1441" d="M0 1608q0 14 10 22t23 8h1173q12 0 22.5 -8t10.5 -22q0 -10 -2 -13.5t-6 -11.5l-1168 -1567q-10 -12 -26 -12q-12 0 -22.5 9.5t-10.5 23.5q0 6 45 69.5t120 165t171 231.5t198.5 267t203 271.5t184.5 245t142 188t75 100.5l-1110 -2q-14 0 -23.5 10t-9.5 25zM250 33 q0 12 8 20l922 1225q8 12 24 12q14 0 24.5 -9.5t10.5 -23.5q0 -10 -8 -18l-883 -1176h842q33 0 33 -32q0 -14 -10.5 -22.5t-22.5 -8.5h-903q-12 0 -24.5 9t-12.5 24z" />
<glyph unicode="[" />
<glyph unicode="\" />
<glyph unicode="]" />
<glyph unicode="^" />
<glyph unicode="_" />
<glyph unicode="`" />
<glyph unicode="a" horiz-adv-x="1507" d="M33 33q0 2 24.5 67.5t64.5 170t92 239.5t106.5 277.5t108.5 281.5t98 255t75 194.5t39 101.5q8 18 31 18t28 -18q8 -23 40 -101.5t77 -194.5t101.5 -255t112.5 -281.5t110.5 -277.5t95.5 -240.5t66.5 -171t25.5 -67.5q0 -12 -9 -21.5t-22 -9.5q-25 0 -30 20l-596 1504 l-68 -174q8 -16 35 -82t65.5 -161t84 -211t92.5 -234.5t91 -231.5t77.5 -201t54 -142t20.5 -56q0 -23 -20 -29q-4 0 -6 -1t-6 -1q-20 0 -29 20l-492 1242l-477 -1242q-8 -20 -31 -20q-4 0 -5 1t-5 1q-20 6 -20 31z" />
<glyph unicode="b" horiz-adv-x="1540" d="M188 31v1577q0 30 31 30h2h617q82 0 154.5 -30.5t125.5 -85t85 -126t32 -153.5q0 -113 -58.5 -208t-162.5 -144q70 -23 129 -66t100 -100t64.5 -125.5t23.5 -142.5q0 -94 -35.5 -177t-97 -144.5t-144.5 -97.5t-177 -36h-455q-16 0 -23.5 12.5t-7.5 26.5v1536h-135v-1546 q0 -14 -11.5 -22.5t-23.5 -8.5t-22.5 9t-10.5 22zM451 63h426q82 0 152.5 31t123.5 84t84 125t31 154q0 80 -31 151.5t-84 124.5t-125 84t-151 31q-8 0 -11 2h-415v-787zM451 911h387q68 0 129 27t106 72t71.5 105t26.5 128q0 70 -26.5 130.5t-71.5 105.5t-105.5 71.5 t-129.5 26.5h-387v-666z" />
<glyph unicode="c" horiz-adv-x="1454" d="M0 819q0 170 64.5 319.5t175 260t260 175t319.5 64.5q72 0 146.5 -13t145.5 -39.5t135.5 -64.5t117.5 -89q12 -12 12 -25q0 -12 -11 -22.5t-24 -10.5q-12 0 -20 8q-59 45 -116.5 81t-117 60.5t-126 38t-142.5 13.5q-156 0 -293 -59.5t-240.5 -163t-163 -240.5t-59.5 -293 t59.5 -293t163 -240.5t241 -163t292.5 -59.5q147 0 268 50.5t234 142.5q10 10 22 10t22.5 -11.5t10.5 -23.5t-12 -24q-111 -104 -254 -155.5t-291 -51.5q-170 0 -319.5 64.5t-260 175t-175 260t-64.5 319.5z" />
<glyph unicode="d" horiz-adv-x="1671" d="M180 33v1571q0 14 9.5 24t23.5 10h473q168 0 317.5 -64.5t260 -175t175 -260t64.5 -317.5q0 -170 -64.5 -318.5t-175 -259t-260 -174t-317.5 -65.5l-268 -2q-14 0 -23.5 10.5t-9.5 24.5v1536h-141v-1540q0 -33 -33 -33q-14 0 -22.5 10t-8.5 23zM449 68h118.5t118.5 2 q156 2 293 61t239.5 160.5t162 237.5t59.5 292t-59.5 294t-161 239.5t-239.5 161t-294 59.5q-59 0 -118.5 -1t-118.5 -1v-1505z" />
<glyph unicode="e" horiz-adv-x="1355" d="M166 35v1573q0 14 10 22t23 8h1003q12 0 21.5 -9t9.5 -21t-9.5 -21.5t-21.5 -9.5h-975v-637h760q12 0 21.5 -9t9.5 -22q0 -12 -9.5 -21t-21.5 -9h-756l-2 -140h766q33 0 33 -32q0 -12 -10 -22.5t-23 -10.5h-768v-604h975q12 0 21.5 -11.5t9.5 -23.5t-8 -23.5t-23 -11.5 h-1003q-14 0 -23.5 10t-9.5 25z" />
<glyph unicode="f" horiz-adv-x="1316" d="M143 33v1575q0 30 31 30h2h1004h2q30 0 30 -30q0 -31 -32 -31h-971v-637h756q12 0 22 -8t10 -23q0 -31 -32 -30h-756v-136h766q14 0 23.5 -10t9.5 -24q0 -12 -10.5 -22.5t-22.5 -10.5h-766v-643q0 -33 -33 -33q-12 0 -22.5 10t-10.5 23z" />
<glyph unicode="g" horiz-adv-x="1689" d="M147 819q0 170 64.5 319.5t175.5 260t260.5 175t319.5 64.5q147 0 289.5 -51t252.5 -155q12 -12 13 -23q0 -14 -10.5 -25.5t-24.5 -11.5q-10 0 -21 10q-111 92 -231.5 142.5t-267.5 50.5q-156 0 -293 -59.5t-240.5 -163t-163 -240.5t-59.5 -293t59.5 -293t163 -240.5 t240.5 -163t293 -59.5q135 0 261 48.5t230 134.5l2 434h-780q-14 0 -23.5 10t-9.5 25q0 12 9.5 22.5t23.5 10.5h811q33 0 33 -35l-2 -482q0 -14 -11 -24q-111 -104 -254 -155.5t-290 -51.5q-170 0 -319.5 64.5t-260.5 175t-175.5 260t-64.5 319.5zM651 915q0 14 10.5 22.5 t22.5 8.5h799q12 0 21 -9.5t9 -21.5t-8 -22t-22 -10h-799q-33 0 -33 32z" />
<glyph unicode="h" horiz-adv-x="1509" d="M143 33v1575q0 12 9.5 21t21.5 9t21.5 -9t9.5 -21v-670h962v670q0 14 11.5 22t23.5 8t22.5 -9t10.5 -21v-1575q0 -12 -10.5 -22.5t-22.5 -10.5q-14 0 -24.5 9t-10.5 24v643h-962v-643q0 -33 -31 -33q-14 0 -22.5 10t-8.5 23zM207 741h960v138h-958z" />
<glyph unicode="i" horiz-adv-x="481" d="M143 31v1577q0 12 9.5 21t21.5 9t22.5 -8t10.5 -22v-1577q0 -14 -10.5 -22.5t-22.5 -8.5t-21.5 9t-9.5 22z" />
<glyph unicode="j" horiz-adv-x="1296" d="M152 170q0 10 11 21.5t23 11.5q8 0 33 -21.5t67 -48.5t100 -48.5t136 -21.5q92 0 173 35t141.5 95.5t95.5 141.5t35 173v1100q0 12 9 21t21 9t20.5 -9t8.5 -21v-1100q0 -104 -40 -196.5t-108.5 -162t-160.5 -109.5t-197 -40q-100 0 -194.5 39t-163.5 111q-10 10 -10 20z " />
<glyph unicode="k" horiz-adv-x="1312" d="M160 45v1552q0 14 10 22.5t23 8.5q12 0 22 -9t10 -22v-753l785 786q10 10 20 10q12 0 22.5 -11t10.5 -21q0 -12 -10 -23l-828 -829v-189q8 8 33 34t55.5 58.5t66.5 67.5t66.5 64.5t53 49t28.5 19.5q18 0 29 -12q12 -18 60.5 -85t113 -155t136 -186t132 -183t99.5 -143.5 t39 -66.5q0 -12 -11.5 -20.5t-21.5 -8.5q-16 0 -25 12l-551 770l-303 -303v-434q0 -12 -10 -21.5t-22 -9.5t-22.5 8.5t-10.5 22.5z" />
<glyph unicode="l" horiz-adv-x="1306" d="M154 31v1566q0 12 9 21.5t21 9.5t21.5 -9t9.5 -22v-1536h137v1545q0 12 10.5 22t22.5 10q33 0 33 -32v-1545h739q33 1 33 -30t-33 -31h-973q-31 0 -30 31z" />
<glyph unicode="m" horiz-adv-x="2033" d="M141 41v1221q0 14 8.5 26t24.5 12t25 -14q14 -20 60 -82.5t110.5 -152.5t143.5 -199t159 -220.5t154.5 -217t133 -188.5t93 -136t34.5 -59q0 -12 -10 -21.5t-22 -9.5q-16 0 -25 12l-823 1155v-1126q0 -14 -10.5 -22.5t-22.5 -8.5t-22.5 9.5t-10.5 21.5zM145 1602 q0 12 8.5 21t22.5 9q18 0 27 -14l749 -1045l750 1053q8 12 22 12q12 0 23.5 -8t11.5 -20q0 -10 -2 -13v-1566q0 -12 -9 -21.5t-22 -9.5q-12 0 -20 9t-8 22v1478l-707 -989q8 -14 37 -53t67 -91t81 -108.5t77.5 -106.5t58 -85t23.5 -43q0 -14 -10 -23.5t-22 -9.5 q-16 0 -25 12l-1126 1569q-6 8 -7 21z" />
<glyph unicode="n" horiz-adv-x="1605" d="M139 33v1235q0 10 10.5 20t20.5 10q14 0 27 -14q14 -20 59 -82.5t110.5 -153t143.5 -200t158 -220t154.5 -216t133 -188.5t93 -135t34.5 -58q0 -12 -10 -21.5t-22 -9.5q-16 0 -25 12l-821 1153v-1132q0 -12 -10.5 -22.5t-22.5 -10.5q-33 0 -33 33zM143 1597q0 33 31 33 q12 0 25 -14l1069 -1487v1479q0 12 9 21t21 9t21.5 -9t9.5 -21l2 -1575q0 -33 -33 -33q-16 0 -24 12l-1127 1567q-4 4 -4 18z" />
<glyph unicode="o" horiz-adv-x="1904" d="M98 819q0 170 64.5 319.5t175.5 260t260.5 175t319.5 64.5t319 -64.5t260 -175t175.5 -260t64.5 -319.5t-64.5 -319.5t-175.5 -260t-260.5 -175t-318.5 -64.5q-170 0 -319.5 64.5t-260.5 175t-175.5 260t-64.5 319.5zM162 819q0 -156 59.5 -293t162.5 -240.5t240.5 -163 t293.5 -59.5t293 59.5t240 163t162.5 240.5t59.5 293t-59.5 293t-162.5 240.5t-240.5 163t-292.5 59.5q-156 0 -293.5 -59.5t-240.5 -163t-162.5 -240.5t-59.5 -293z" />
<glyph unicode="p" horiz-adv-x="1335" d="M164 31v1575q0 32 29 32h2h616q82 0 153.5 -31.5t125 -85t85 -125t31.5 -153.5t-31.5 -153.5t-85 -126t-125 -85t-153.5 -30.5h-383v-807q0 -14 -11 -22.5t-24 -8.5q-12 0 -22.5 9.5t-10.5 21.5v1532h-133v-1542q0 -14 -10 -22.5t-22 -8.5t-21.5 9t-9.5 22zM428 909h383 q68 0 128 27t105.5 72t72 105t26.5 128t-26.5 128.5t-72 105.5t-105.5 71.5t-128 26.5h-383v-664z" />
<glyph unicode="q" horiz-adv-x="1980" d="M164 827q0 168 63.5 315.5t174 258t258 174t315.5 63.5t316.5 -63.5t259 -173t174 -258t63.5 -316.5q0 -324 -225 -561q8 -12 34.5 -48t54 -74t49 -71.5t21.5 -41.5q0 -12 -9 -21.5t-21 -9.5q-18 0 -27 12q-10 14 -46 63.5t-83 115t-100.5 138t-97.5 136t-72.5 107.5 t-28.5 51q0 12 9 21t22 9q18 0 26 -14l230 -320q98 104 148 234.5t50 273.5q0 154 -59 290t-160.5 237.5t-238 161t-289.5 59.5q-154 0 -290 -59.5t-237.5 -161t-161 -237.5t-59.5 -290t59.5 -290t161 -237t237.5 -160.5t290 -59.5q88 0 172 21.5t164 56.5q-8 12 -36 49 t-63.5 87t-74.5 104.5t-73 102.5t-55.5 80.5t-21.5 39.5q0 12 9.5 22t23.5 10q18 0 27 -14q6 -10 39.5 -57t80.5 -114t100.5 -141.5t98.5 -138t74.5 -108.5t29.5 -49q0 -12 -9 -21.5t-21 -9.5t-25.5 13.5t-26 30.5t-23.5 34.5t-17 27.5q-86 -45 -180.5 -68.5t-192.5 -23.5 q-170 0 -317.5 63.5t-257 174t-173 258t-63.5 317.5z" />
<glyph unicode="r" horiz-adv-x="1378" d="M182 31v1577q0 30 29 30h2h594q78 0 145.5 -27.5t117.5 -76.5t79 -115.5t29 -144.5q0 -72 -25 -136.5t-68 -113.5t-103 -82t-132 -43q-10 -2 -21.5 -2h-21.5h-356l-2 -137h374q18 0 29 -19q6 -16 32.5 -73.5t62.5 -135t76 -163.5t73.5 -160t56.5 -124t23 -56 q0 -14 -10.5 -21.5t-22.5 -7.5q-20 0 -29 18l-311 678h-361v-655q0 -14 -10 -22.5t-22 -8.5t-21.5 9.5t-9.5 21.5v1536h-133v-1546q0 -14 -10.5 -22.5t-22.5 -8.5t-21.5 9t-9.5 22zM442 961h365q63 0 119.5 24.5t98.5 67.5t65.5 99t23.5 122q0 63 -24.5 118.5t-66.5 96.5 t-97.5 64.5t-118.5 23.5h-365v-616z" />
<glyph unicode="s" horiz-adv-x="1327" d="M-2 274q0 12 10 23.5t25 11.5q10 0 20 -10q127 -106 263.5 -171t306.5 -65q86 0 171 24t153.5 72t110.5 119.5t42 167.5q0 78 -37 134.5t-96.5 96.5t-136 66.5t-154.5 46t-152.5 34t-130.5 28.5q-68 18 -130 50t-109.5 79t-75 109.5t-27.5 140.5q0 104 48 181t125 127 t170 75.5t184 25.5q57 0 129.5 -12t145.5 -35.5t136.5 -56.5t106.5 -74q6 -6 9 -10t3 -14q0 -12 -10.5 -22.5t-22.5 -10.5q-4 0 -15 6t-24.5 15.5t-25 16.5t-17.5 11q-92 55 -196.5 88t-214.5 33q-78 0 -160 -19.5t-150.5 -60.5t-112.5 -105.5t-44 -154.5q0 -98 45 -160.5 t118.5 -102.5t168 -64.5t193.5 -47t193.5 -49.5t168 -73t118.5 -116.5t45 -181.5t-48 -193.5t-127 -137t-176 -82t-196 -27.5q-174 0 -329.5 67.5t-278.5 184.5q-12 12 -12 22z" />
<glyph unicode="t" horiz-adv-x="1394" d="M143 1409q0 12 8.5 23.5t22.5 11.5h1018q14 0 22.5 -11.5t8.5 -23.5t-9.5 -22.5t-21.5 -10.5h-475v-1345q0 -12 -10.5 -21.5t-22.5 -9.5t-22.5 8t-10.5 23v1345h-477q-12 0 -21.5 10.5t-9.5 22.5zM143 1608q0 12 9.5 21t21.5 9h1008q12 0 21 -9t9 -21t-9 -21.5t-21 -9.5 h-1008q-12 0 -21.5 9t-9.5 22z" />
<glyph unicode="u" horiz-adv-x="1374" d="M139 406v1202q0 12 9.5 21t21.5 9t21.5 -9t9.5 -21v-1202q0 -70 27.5 -132.5t74.5 -109.5t109.5 -75t132.5 -28h157q70 0 131.5 28t106.5 75t71.5 109.5t26.5 132.5v1202q0 12 9.5 21t21.5 9t21.5 -9t9.5 -21v-1202q0 -82 -31 -156t-85 -129t-127 -88t-155 -33h-157 q-84 0 -158 31.5t-129 87t-87 129.5t-32 158z" />
<glyph unicode="v" horiz-adv-x="1507" d="M0 1606q0 14 9 23t22 9q25 0 30 -20l476 -1237l489 1237q6 20 31 20q12 0 21 -9t9 -21q0 -4 -20 -57.5t-54 -140.5t-77 -198.5t-90 -229.5t-92 -232.5t-83 -210t-64.5 -161t-35.5 -83.5l66 -174l594 1497q6 20 31 20q12 0 21 -9t9 -21q0 -4 -25.5 -69.5t-66.5 -171 t-94 -240t-110.5 -276.5t-113 -281.5t-101.5 -254t-76.5 -193.5t-38.5 -102q-8 -20 -29 -20q-6 4 -15.5 8t-13.5 12q-8 20 -38.5 100.5t-74.5 195t-98.5 254t-110 281.5t-106.5 277.5t-91 240t-64.5 170t-24.5 67.5z" />
<glyph unicode="w" horiz-adv-x="2027" d="M139 373v1224q0 12 9.5 21.5t21.5 9.5t22.5 -8t10.5 -23v-1130l823 1155q8 14 27 14q12 0 21 -9t9 -23q0 -4 -34.5 -56.5t-93 -135.5t-133 -188.5t-154.5 -217t-158 -220t-143.5 -198.5t-110.5 -152.5t-59 -83.5q-8 -14 -25 -14q-16 0 -24.5 10t-8.5 25zM141 39 q0 6 45 72.5t120 171t170 237.5t197.5 273.5t203 278.5t182.5 252t140 194.5t75 105.5q8 12 22 12q12 0 23.5 -9t11.5 -23q0 -8 -23.5 -43t-58.5 -84.5t-77 -106.5t-80.5 -108.5t-67.5 -91.5t-37 -52l703 -987v1477q0 14 10 22t22 8t21.5 -9t9.5 -21v-1577q0 -12 -9 -21.5 t-22 -9.5q-16 0 -24 12l-750 1051l-749 -1043q-8 -14 -25 -14q-14 0 -23.5 10.5t-9.5 22.5z" />
<glyph unicode="x" horiz-adv-x="1619" d="M0 1608q0 12 9 21t24 9q14 0 24 -12q16 -25 73.5 -105.5t140.5 -195.5t184.5 -254t204 -280.5t198.5 -275.5t171 -239.5t120 -171t45 -71.5q0 -14 -10 -23.5t-23 -9.5q-16 0 -24 12l-500 697l-498 -697q-10 -12 -24 -12q-12 0 -22.5 9t-10.5 24q0 6 35 58t88 128 t117.5 163t122 166t100.5 138t55 76q-14 18 -64.5 85.5t-117 160t-140 195t-135 190.5t-102.5 147t-41 68zM250 1602q0 14 11 23t24 9q12 0 22 -12l455 -633l457 637q8 12 24 12q12 0 22.5 -8t10.5 -22q0 -8 -32 -56.5t-81 -118t-106.5 -150.5t-110.5 -153.5t-93 -126 t-52 -69.5l635 -885q8 -8 8 -20t-11.5 -20.5t-21.5 -8.5q-18 0 -27 12q-16 27 -73.5 108t-140.5 195.5t-183 252t-202.5 278.5t-199 274t-171 237.5t-119.5 171t-45 73.5z" />
<glyph unicode="y" horiz-adv-x="1490" d="M-2 1610q0 12 11 20t24 8q14 0 24 -12l740 -1022q6 -10 6 -18v-555q0 -12 -9.5 -21.5t-21.5 -9.5t-21.5 9t-9.5 22v544q-16 23 -77.5 106t-144.5 195.5t-174 238.5t-169 233.5t-128 180.5t-50 81zM252 1602q0 14 11 23t24 9q12 0 22 -12l469 -651l445 653q8 14 26 14 q12 0 22.5 -9t10.5 -21q0 -8 -31.5 -58.5t-81 -124t-106.5 -158.5t-110.5 -162t-93.5 -133.5t-52 -72.5q-8 -14 -27 -14q-18 0 -30 16l-492 684q-6 6 -6 17z" />
<glyph unicode="z" horiz-adv-x="1441" d="M0 1608q0 14 10 22t23 8h1173q12 0 22.5 -8t10.5 -22q0 -10 -2 -13.5t-6 -11.5l-1168 -1567q-10 -12 -26 -12q-12 0 -22.5 9.5t-10.5 23.5q0 6 45 69.5t120 165t171 231.5t198.5 267t203 271.5t184.5 245t142 188t75 100.5l-1110 -2q-14 0 -23.5 10t-9.5 25zM250 33 q0 12 8 20l922 1225q8 12 24 12q14 0 24.5 -9.5t10.5 -23.5q0 -10 -8 -18l-883 -1176h842q33 0 33 -32q0 -14 -10.5 -22.5t-22.5 -8.5h-903q-12 0 -24.5 9t-12.5 24z" />
</font>
</defs>
</svg>
