<?xml version="1.0" encoding="UTF-8" standalone="no"?>
<svg
   xmlns:dc="http://purl.org/dc/elements/1.1/"
   xmlns:cc="http://creativecommons.org/ns#"
   xmlns:rdf="http://www.w3.org/1999/02/22-rdf-syntax-ns#"
   xmlns:svg="http://www.w3.org/2000/svg"
   xmlns="http://www.w3.org/2000/svg"
   xmlns:sodipodi="http://sodipodi.sourceforge.net/DTD/sodipodi-0.dtd"
   xmlns:inkscape="http://www.inkscape.org/namespaces/inkscape"
   viewBox="0 0 500 500"
   enable-background="new 0 0 658 270"
   id="svg2"
   version="1.1"
   inkscape:version="0.91 r13725"
   sodipodi:docname="akka.svg"
   width="500"
   height="500">
  <metadata
     id="metadata18">
    <rdf:RDF>
      <cc:Work
         rdf:about="">
        <dc:format>image/svg+xml</dc:format>
        <dc:type
           rdf:resource="http://purl.org/dc/dcmitype/StillImage" />
        <dc:title />
      </cc:Work>
    </rdf:RDF>
  </metadata>
  <defs
     id="defs16" />
  <sodipodi:namedview
     pagecolor="#ffffff"
     bordercolor="#666666"
     borderopacity="1"
     objecttolerance="10"
     gridtolerance="10"
     guidetolerance="10"
     inkscape:pageopacity="0"
     inkscape:pageshadow="2"
     inkscape:window-width="1174"
     inkscape:window-height="692"
     id="namedview14"
     showgrid="false"
     inkscape:zoom="0.85540577"
     inkscape:cx="131.83114"
     inkscape:cy="206.3482"
     inkscape:window-x="20"
     inkscape:window-y="43"
     inkscape:window-maximized="0"
     inkscape:current-layer="svg2" />
  <g
     id="g4"
     transform="matrix(1.4862534,0,0,1.4862534,27.704577,43.549717)">
    <g
       id="g6"
       style="fill:#0b5567" />
    <path
       d="m 230.3,212.8 c 35.9,28.7 58.9,-57 1.7,-72.8 -48,-13.3 -96.3,9.5 -144.7,62.7 0,0 89.4,-32.7 143,10.1 z"
       id="path10"
       inkscape:connector-curvature="0"
       style="fill:#0b5567" />
    <path
       d="m 88.1,202 c 34.4,-35.7 91.6,-75.5 144.9,-60.8 12.4,3.5 21.2,10.7 26.9,19.3 L 209.5,58.8 c -7.2,-11.5 -25.6,-9.1 -36,-0.3 L 40.3,170.1 c -12.1,10.4 -12.8,28.9 -1.6,40.1 9.9,9.9 25.6,10.8 36.5,2 L 88.1,202 Z"
       id="path12"
       inkscape:connector-curvature="0"
       style="fill:#15a9ce" />
  </g>
</svg>
