<?xml version="1.0" ?><!DOCTYPE svg  PUBLIC '-//W3C//DTD SVG 1.1//EN'  'http://www.w3.org/Graphics/SVG/1.1/DTD/svg11.dtd'><svg enable-background="new 0 0 512 512" height="512px" id="Fireworks_1_" version="1.1" viewBox="0 0 512 512" width="512px" xml:space="preserve" xmlns="http://www.w3.org/2000/svg" xmlns:xlink="http://www.w3.org/1999/xlink"><g id="Frame_6_"><g><rect fill="#DDD100" height="486.004" width="499.004" x="6.998" y="11.998"/></g></g><g id="Background_6_"><g><rect fill="#514C26" height="407.969" width="421.987" x="45.008" y="51.016"/></g></g><g id="Shadow2_6_" opacity="0.302"><g><polygon points="410,209 384,257 326,209 310,213 302,228 207,151 110,151 101,357 240,459 467,459 467,259   "/></g></g><g id="Shadow_7_" opacity="0.302"><g><rect height="13.998" width="421.987" x="45.008" y="51.001"/></g></g><g id="Fw"><g><path d="M101.386,150.79h106.213v30.847H134.97v56.809h67.714v30.848H134.97v87.35h-33.584V150.79z" fill="#DDD100"/><path d="M248.275,207.903L262.2,275.4c3.004,15.883,6.007,32.069,8.465,48.257h0.546    c2.73-16.188,7.099-32.68,10.922-47.951l17.201-67.803h27.305l16.655,65.971c4.096,17.409,7.645,33.596,10.648,49.783h0.546    c2.185-16.188,5.188-32.374,8.737-49.783l14.744-65.971h33.038l-41.775,148.739h-31.127L322.27,296.17    c-4.096-15.577-7.099-29.626-10.103-47.646h-0.546c-2.73,18.326-6.28,32.986-10.103,47.646l-16.929,60.473H253.19l-39.318-148.739    H248.275z" fill="#DDD100"/></g></g></svg>