<?xml version="1.0" encoding="utf-8"?>
<!-- Generator: Adobe Illustrator 16.0.0, SVG Export Plug-In . SVG Version: 6.00 Build 0)  -->
<!DOCTYPE svg PUBLIC "-//W3C//DTD SVG 1.1//EN" "http://www.w3.org/Graphics/SVG/1.1/DTD/svg11.dtd">
<svg version="1.1" id="Layer_1" xmlns="http://www.w3.org/2000/svg" xmlns:xlink="http://www.w3.org/1999/xlink" x="0px" y="0px"
	 width="525.2px" height="46.3px" viewBox="0 0 525.2 46.3" style="enable-background:new 0 0 525.2 46.3;" xml:space="preserve">
<style type="text/css">
<![CDATA[
	.st0{fill:#4BA282;}
	.st1{fill:#86A4AC;}
	.st2{fill:#EA681C;}
	.st3{fill:#21387B;}
	.st4{fill:#2267A2;}
	.st5{fill:#F2B890;}
	.st6{fill:#F3A425;}
	.st7{fill:#F5CCDE;}
	.st8{fill:#F5E753;}
	.st9{fill:#661818;}
	.st10{fill:#9AA8A9;}
	.st11{fill:#CC9E26;}
	.st12{fill:#3785B3;}
	.st13{fill:#D32C33;}
	.st14{fill:#A6CDDE;}
]]>
</style>
<g>
	<path class="st0" d="M28.1,14.1c0,1.3-0.2,2.5-0.7,3.6c-0.5,1.1-1.2,2.1-2,3c-0.8,0.8-1.8,1.5-2.9,2c-1.1,0.5-2.3,0.7-3.6,0.7h-9
		v18.9c0,0.2-0.1,0.4-0.3,0.5C9.4,42.9,9.2,43,9,43s-0.4-0.1-0.5-0.2c-0.2-0.1-0.2-0.3-0.2-0.5v-36H5.1v36.2c0,0.2-0.1,0.4-0.2,0.5
		c-0.2,0.1-0.3,0.2-0.5,0.2c-0.2,0-0.4-0.1-0.5-0.2c-0.1-0.1-0.2-0.3-0.2-0.5V5.6c0-0.5,0.2-0.8,0.7-0.8h14.4c1.3,0,2.5,0.2,3.6,0.7
		c1.1,0.5,2.1,1.2,2.9,2c0.8,0.8,1.5,1.8,2,2.9C27.8,11.6,28.1,12.8,28.1,14.1z M26.6,14.1c0-1.1-0.2-2.1-0.6-3s-1-1.8-1.7-2.5
		c-0.7-0.7-1.5-1.3-2.5-1.7c-0.9-0.4-1.9-0.6-3-0.6h-9v15.6h9c1.1,0,2.1-0.2,3-0.6c0.9-0.4,1.8-1,2.5-1.7s1.3-1.5,1.7-2.5
		C26.4,16.1,26.6,15.1,26.6,14.1z"/>
	<path class="st9" d="M56.6,42.5c0,0.2-0.1,0.4-0.2,0.5c-0.1,0.1-0.3,0.2-0.5,0.2c-0.4,0-0.6-0.2-0.7-0.5l-14-35.2l-1.6,4.1
		c0.1,0.3,0.4,0.9,0.8,1.9c0.4,1,0.9,2.3,1.5,3.8c0.6,1.5,1.3,3.1,2,4.9c0.7,1.8,1.4,3.6,2.2,5.5c0.7,1.9,1.4,3.7,2.1,5.4
		c0.7,1.8,1.3,3.3,1.8,4.7c0.5,1.4,1,2.5,1.3,3.3c0.3,0.8,0.5,1.3,0.5,1.3c0,0.4-0.2,0.6-0.5,0.7c-0.1,0-0.1,0-0.1,0
		c0,0-0.1,0-0.1,0c-0.3,0-0.5-0.2-0.7-0.5L38.9,13.6L27.7,42.7c-0.1,0.3-0.4,0.5-0.7,0.5c-0.1,0-0.1,0-0.1,0c0,0-0.1,0-0.1,0
		c-0.3-0.1-0.5-0.3-0.5-0.7c0,0,0.2-0.6,0.6-1.6c0.4-1,0.9-2.4,1.5-4c0.6-1.6,1.3-3.5,2.2-5.6s1.6-4.3,2.5-6.5
		c0.8-2.2,1.7-4.4,2.5-6.6c0.8-2.2,1.6-4.2,2.3-6c0.7-1.8,1.3-3.3,1.8-4.6c0.5-1.2,0.8-2,0.9-2.4c0.1-0.3,0.4-0.4,0.7-0.4
		s0.6,0.1,0.7,0.4c0.1,0.4,0.4,1.1,0.9,2.4c0.5,1.2,1.1,2.8,1.8,4.6c0.7,1.8,1.5,3.8,2.4,6c0.9,2.2,1.8,4.4,2.6,6.6
		c0.9,2.2,1.7,4.4,2.6,6.5s1.6,4,2.2,5.6c0.6,1.6,1.2,3,1.6,4C56.4,41.9,56.6,42.4,56.6,42.5z"/>
	<path class="st10" d="M82.7,5.5c0,0.1-0.2,0.6-0.6,1.6c-0.4,1-0.9,2.4-1.6,4c-0.6,1.6-1.4,3.5-2.2,5.6c-0.8,2.1-1.7,4.3-2.6,6.5
		c-0.9,2.2-1.8,4.4-2.6,6.6c-0.9,2.2-1.7,4.2-2.4,6c-0.7,1.8-1.3,3.3-1.8,4.5c-0.5,1.2-0.8,2-0.9,2.4c-0.1,0.3-0.4,0.5-0.7,0.5
		c-0.1-0.1-0.2-0.1-0.4-0.2c-0.1-0.1-0.2-0.2-0.3-0.3c-0.1-0.3-0.4-1.1-0.9-2.4s-1.1-2.8-1.8-4.6s-1.5-3.8-2.3-6
		c-0.8-2.2-1.7-4.4-2.6-6.6c-0.9-2.2-1.7-4.4-2.5-6.5c-0.8-2.1-1.5-4-2.1-5.6c-0.6-1.6-1.1-3-1.5-4c-0.4-1-0.6-1.6-0.6-1.6
		c0-0.2,0.1-0.4,0.2-0.6c0.1-0.1,0.3-0.2,0.5-0.2c0.4,0,0.6,0.2,0.7,0.5l11.1,29l11.5-29c0.1-0.3,0.3-0.5,0.7-0.5
		c0.2,0,0.4,0.1,0.5,0.2c0.1,0.1,0.2,0.3,0.2,0.5c0,0.1-0.2,0.5-0.5,1.3c-0.3,0.8-0.7,1.9-1.3,3.3s-1.1,2.9-1.8,4.7
		c-0.7,1.7-1.4,3.5-2.1,5.4c-0.7,1.8-1.5,3.7-2.2,5.4c-0.7,1.8-1.4,3.4-1.9,4.9c-0.6,1.5-1.1,2.7-1.5,3.8c-0.4,1-0.7,1.7-0.8,2
		l1.5,4.1L81.2,5.3c0.1-0.3,0.3-0.5,0.7-0.5c0.2,0,0.4,0.1,0.5,0.2C82.6,5.2,82.7,5.3,82.7,5.5z"/>
	<path class="st11" d="M116,42.4c0,0.2-0.1,0.4-0.2,0.6c-0.1,0.2-0.3,0.3-0.5,0.3H91.7c-0.2,0-0.4-0.1-0.6-0.2
		c-0.1-0.2-0.2-0.4-0.2-0.6V5.5c0-0.2,0.1-0.4,0.2-0.5c0.2-0.1,0.3-0.2,0.5-0.2h23.5c0.2,0,0.4,0.1,0.5,0.2c0.1,0.1,0.2,0.3,0.2,0.5
		c0,0.2-0.1,0.4-0.2,0.5c-0.1,0.1-0.3,0.2-0.5,0.2H92.4v14.8h17.8c0.2,0,0.4,0.1,0.5,0.2c0.1,0.1,0.2,0.3,0.2,0.5s-0.1,0.4-0.2,0.5
		c-0.1,0.1-0.3,0.2-0.5,0.2H92.5l0,3.3h18c0.5,0,0.8,0.2,0.8,0.7c0,0.2-0.1,0.4-0.2,0.5c-0.2,0.2-0.3,0.2-0.5,0.2h-18v14.2h22.8
		c0.2,0,0.4,0.1,0.5,0.3C115.9,42,116,42.2,116,42.4z"/>
	<path class="st8" d="M146,42.5c0,0.5-0.3,0.7-0.8,0.7h-22.8c-0.5,0-0.7-0.2-0.7-0.7V5.8c0-0.2,0.1-0.4,0.2-0.5
		c0.1-0.1,0.3-0.2,0.5-0.2c0.2,0,0.4,0.1,0.5,0.2c0.1,0.1,0.2,0.3,0.2,0.5v36h3.2V5.6c0-0.2,0.1-0.4,0.2-0.5
		c0.2-0.2,0.3-0.2,0.5-0.2c0.5,0,0.7,0.3,0.7,0.8v36.1h17.3C145.7,41.7,146,42,146,42.5z"/>
	<path class="st2" d="M201,24c0,2.7-0.5,5.1-1.5,7.5c-1,2.3-2.4,4.3-4.1,6.1c-1.7,1.7-3.8,3.1-6.1,4.1c-2.3,1-4.8,1.5-7.4,1.5
		l-6.3,0c-0.2,0-0.4-0.1-0.6-0.2c-0.1-0.2-0.2-0.4-0.2-0.6v-36h-3.3v36.1c0,0.5-0.3,0.8-0.8,0.8c-0.2,0-0.4-0.1-0.5-0.2
		s-0.2-0.3-0.2-0.5V5.6c0-0.2,0.1-0.4,0.2-0.6c0.1-0.2,0.3-0.2,0.6-0.2h11.1c2.6,0,5.1,0.5,7.4,1.5c2.3,1,4.4,2.4,6.1,4.1
		c1.7,1.7,3.1,3.8,4.1,6.1C200.5,18.8,201,21.3,201,24z M199.5,23.9c0-2.4-0.5-4.7-1.4-6.9c-0.9-2.2-2.2-4-3.8-5.6s-3.5-2.8-5.6-3.8
		c-2.2-0.9-4.5-1.4-6.9-1.4c-0.9,0-1.9,0-2.8,0c-0.9,0-1.9,0-2.8,0v35.3c0.9,0,1.9,0,2.8,0c0.9,0,1.9,0,2.8,0c2.4,0,4.7-0.5,6.9-1.4
		c2.1-0.9,4-2.2,5.6-3.8s2.9-3.4,3.8-5.6C199.1,28.6,199.5,26.4,199.5,23.9z"/>
	<path class="st12" d="M234.8,42.4c0,0.2-0.1,0.4-0.2,0.6c-0.1,0.2-0.3,0.3-0.5,0.3h-23.5c-0.2,0-0.4-0.1-0.6-0.2s-0.2-0.4-0.2-0.6
		V5.5c0-0.2,0.1-0.4,0.2-0.5c0.2-0.1,0.3-0.2,0.5-0.2h23.5c0.2,0,0.4,0.1,0.5,0.2c0.1,0.1,0.2,0.3,0.2,0.5c0,0.2-0.1,0.4-0.2,0.5
		c-0.1,0.1-0.3,0.2-0.5,0.2h-22.8v14.8h17.8c0.2,0,0.4,0.1,0.5,0.2c0.1,0.1,0.2,0.3,0.2,0.5s-0.1,0.4-0.2,0.5
		c-0.1,0.1-0.3,0.2-0.5,0.2h-17.7l0,3.3h18c0.5,0,0.8,0.2,0.8,0.7c0,0.2-0.1,0.4-0.2,0.5c-0.2,0.2-0.3,0.2-0.5,0.2h-18v14.2h22.8
		c0.2,0,0.4,0.1,0.5,0.3C234.7,42,234.8,42.2,234.8,42.4z"/>
	<path class="st7" d="M263.1,42.5c0,0.2-0.1,0.4-0.2,0.5c-0.2,0.1-0.3,0.2-0.5,0.2c-0.3,0-0.4-0.1-0.6-0.3l-19.3-27.1v26.4
		c0,0.2-0.1,0.4-0.2,0.5c-0.2,0.1-0.3,0.2-0.5,0.2c-0.2,0-0.4-0.1-0.5-0.2c-0.2-0.1-0.2-0.3-0.2-0.5V13.6c0-0.2,0.1-0.4,0.2-0.6
		c0.1-0.2,0.3-0.3,0.6-0.3c0.2,0,0.4,0.1,0.6,0.3c0.2,0.3,0.7,1,1.4,1.9c0.7,1,1.6,2.2,2.6,3.6c1,1.4,2.1,3,3.4,4.7
		c1.2,1.7,2.5,3.4,3.7,5.2c1.2,1.7,2.5,3.4,3.6,5.1c1.2,1.6,2.2,3.1,3.1,4.4c0.9,1.3,1.6,2.4,2.2,3.2
		C262.8,41.9,263.1,42.4,263.1,42.5z M278.9,5.5c0,0.2,0,0.3,0,0.3v36.7c0,0.2-0.1,0.4-0.2,0.5c-0.1,0.1-0.3,0.2-0.5,0.2
		s-0.4-0.1-0.5-0.2c-0.1-0.1-0.2-0.3-0.2-0.5V7.8L260.9,31c0.1,0.2,0.4,0.6,0.9,1.2c0.4,0.6,1,1.3,1.6,2.1c0.6,0.8,1.2,1.7,1.9,2.5
		c0.7,0.9,1.3,1.7,1.8,2.5s1,1.4,1.4,2c0.4,0.5,0.6,0.9,0.6,1c0,0.2-0.1,0.4-0.2,0.6c-0.2,0.1-0.3,0.2-0.5,0.2
		c-0.3,0-0.4-0.1-0.6-0.3L241.2,6.1c-0.1-0.1-0.1-0.3-0.1-0.5c0-0.2,0.1-0.4,0.2-0.5c0.1-0.1,0.3-0.2,0.5-0.2c0.3,0,0.5,0.1,0.6,0.3
		L260,29.8l17.6-24.7c0.1-0.2,0.3-0.3,0.5-0.3c0.2,0,0.4,0.1,0.6,0.2C278.8,5.1,278.9,5.3,278.9,5.5z"/>
	<path class="st14" d="M305.1,42.5c0,0.2-0.1,0.4-0.2,0.5c-0.1,0.1-0.3,0.2-0.5,0.2c-0.2,0-0.4-0.1-0.5-0.2
		c-0.1-0.1-0.2-0.3-0.2-0.5V29.7c-0.3-0.4-0.9-1.2-1.8-2.5c-1-1.3-2.1-2.8-3.4-4.6c-1.3-1.8-2.7-3.6-4.1-5.6s-2.7-3.8-4-5.5
		c-1.2-1.7-2.2-3.1-3-4.2c-0.8-1.1-1.2-1.8-1.2-1.9c0-0.2,0.1-0.4,0.3-0.5c0.2-0.1,0.4-0.2,0.6-0.2c0.2,0,0.4,0.1,0.6,0.3L305,29
		c0.1,0.2,0.1,0.3,0.1,0.4L305.1,42.5L305.1,42.5z M316.3,5.5c0,0.1-0.2,0.6-0.7,1.4s-1.1,1.8-1.9,2.9c-0.8,1.2-1.6,2.4-2.5,3.7
		c-0.9,1.3-1.8,2.6-2.6,3.8c-0.8,1.2-1.6,2.2-2.2,3.1c-0.6,0.9-1,1.4-1.2,1.7c-0.1,0.2-0.3,0.3-0.6,0.3s-0.5-0.1-0.7-0.4L292.3,6
		c-0.1-0.1-0.1-0.2-0.1-0.4c0-0.2,0.1-0.4,0.3-0.6c0.2-0.1,0.4-0.2,0.6-0.2c0.2,0,0.4,0.1,0.5,0.3l11,15.3L315,5.1
		c0.1-0.2,0.3-0.3,0.6-0.3c0.2,0,0.4,0.1,0.5,0.2C316.3,5.2,316.3,5.3,316.3,5.5z"/>
	<path class="st13" d="M344.2,42.5c0,0.2-0.1,0.4-0.2,0.5c-0.1,0.1-0.3,0.2-0.5,0.2c-0.4,0-0.6-0.2-0.7-0.5l-14-35.2l-1.6,4.1
		c0.1,0.3,0.4,0.9,0.8,1.9s0.9,2.3,1.5,3.8c0.6,1.5,1.3,3.1,2,4.9c0.7,1.8,1.4,3.6,2.2,5.5c0.7,1.9,1.4,3.7,2.1,5.4
		c0.7,1.8,1.3,3.3,1.8,4.7c0.5,1.4,1,2.5,1.3,3.3c0.3,0.8,0.5,1.3,0.5,1.3c0,0.4-0.2,0.6-0.5,0.7c-0.1,0-0.1,0-0.1,0
		c0,0-0.1,0-0.1,0c-0.3,0-0.5-0.2-0.7-0.5l-11.5-29.1l-11.2,29.1c-0.1,0.3-0.4,0.5-0.7,0.5c-0.1,0-0.1,0-0.1,0c0,0-0.1,0-0.1,0
		c-0.3-0.1-0.5-0.3-0.5-0.7c0,0,0.2-0.6,0.6-1.6c0.4-1,0.9-2.4,1.5-4s1.3-3.5,2.2-5.6s1.6-4.3,2.5-6.5c0.8-2.2,1.7-4.4,2.5-6.6
		c0.8-2.2,1.6-4.2,2.3-6c0.7-1.8,1.3-3.3,1.8-4.6c0.5-1.2,0.8-2,0.9-2.4c0.1-0.3,0.4-0.4,0.7-0.4s0.6,0.1,0.7,0.4
		c0.1,0.4,0.4,1.1,0.9,2.4c0.5,1.2,1.1,2.8,1.8,4.6c0.7,1.8,1.5,3.8,2.4,6c0.9,2.2,1.8,4.4,2.6,6.6c0.9,2.2,1.7,4.4,2.6,6.5
		c0.8,2.1,1.6,4,2.2,5.6c0.6,1.6,1.2,3,1.6,4C344,41.9,344.2,42.4,344.2,42.5z"/>
	<path class="st4" d="M373.7,42.5c0,0.2-0.1,0.4-0.2,0.5c-0.2,0.1-0.3,0.2-0.5,0.2c-0.3,0-0.4-0.1-0.6-0.3l-19.2-27v26.5
		c0,0.2-0.1,0.4-0.2,0.5c-0.2,0.2-0.3,0.2-0.5,0.2c-0.5,0-0.7-0.3-0.7-0.8V13.5c0-0.2,0.1-0.3,0.2-0.5c0.2-0.2,0.3-0.2,0.5-0.2
		c0.2,0,0.4,0.1,0.6,0.3c0.2,0.3,0.7,1,1.4,1.9c0.7,1,1.6,2.2,2.6,3.6c1,1.4,2.1,3,3.4,4.7s2.4,3.4,3.7,5.2c1.2,1.7,2.5,3.4,3.6,5.1
		c1.2,1.6,2.2,3.1,3.1,4.4c0.9,1.3,1.6,2.4,2.2,3.2C373.5,41.9,373.7,42.4,373.7,42.5z M379.6,42.4c0,0.5-0.3,0.8-0.8,0.8
		c-0.3,0-0.4-0.1-0.6-0.3L351.8,6.2c-0.1-0.1-0.1-0.2-0.1-0.4c0-0.5,0.2-0.8,0.7-0.8c0.2,0,0.4,0.1,0.6,0.3l25.1,34.8V5.5
		c0-0.2,0.1-0.4,0.2-0.5c0.1-0.1,0.3-0.2,0.5-0.2c0.2,0,0.4,0.1,0.5,0.2c0.1,0.1,0.2,0.3,0.2,0.5L379.6,42.4z"/>
	<path class="st6" d="M415,42.4c0,0.2-0.1,0.4-0.2,0.6c-0.1,0.2-0.3,0.3-0.5,0.3h-23.5c-0.2,0-0.4-0.1-0.6-0.2s-0.2-0.4-0.2-0.6V5.5
		c0-0.2,0.1-0.4,0.2-0.5c0.2-0.1,0.3-0.2,0.5-0.2h23.5c0.2,0,0.4,0.1,0.5,0.2c0.1,0.1,0.2,0.3,0.2,0.5c0,0.2-0.1,0.4-0.2,0.5
		c-0.1,0.1-0.3,0.2-0.5,0.2h-22.8v14.8h17.8c0.2,0,0.4,0.1,0.5,0.2c0.1,0.1,0.2,0.3,0.2,0.5s-0.1,0.4-0.2,0.5
		c-0.1,0.1-0.3,0.2-0.5,0.2h-17.7l0,3.3h18c0.5,0,0.8,0.2,0.8,0.7c0,0.2-0.1,0.4-0.2,0.5c-0.2,0.2-0.3,0.2-0.5,0.2h-18v14.2h22.8
		c0.2,0,0.4,0.1,0.5,0.3C414.9,42,415,42.2,415,42.4z"/>
	<path class="st5" d="M443.1,42.5c0,0.2-0.1,0.4-0.2,0.5c-0.2,0.1-0.3,0.2-0.5,0.2c-0.3,0-0.4-0.1-0.6-0.3l-19.2-27v26.5
		c0,0.2-0.1,0.4-0.2,0.5c-0.2,0.2-0.3,0.2-0.5,0.2c-0.5,0-0.7-0.3-0.7-0.8V13.5c0-0.2,0.1-0.3,0.2-0.5c0.2-0.2,0.3-0.2,0.5-0.2
		c0.2,0,0.4,0.1,0.6,0.3c0.2,0.3,0.7,1,1.4,1.9c0.7,1,1.6,2.2,2.6,3.6c1,1.4,2.1,3,3.4,4.7s2.4,3.4,3.7,5.2c1.2,1.7,2.5,3.4,3.6,5.1
		c1.2,1.6,2.2,3.1,3.1,4.4s1.6,2.4,2.2,3.2C442.9,41.9,443.1,42.4,443.1,42.5z M449,42.4c0,0.5-0.3,0.8-0.8,0.8
		c-0.3,0-0.4-0.1-0.6-0.3L421.2,6.2c-0.1-0.1-0.1-0.2-0.1-0.4c0-0.5,0.2-0.8,0.7-0.8c0.2,0,0.4,0.1,0.6,0.3l25.1,34.8V5.5
		c0-0.2,0.1-0.4,0.2-0.5c0.1-0.1,0.3-0.2,0.5-0.2c0.2,0,0.4,0.1,0.5,0.2c0.1,0.1,0.2,0.3,0.2,0.5L449,42.4z"/>
	<path class="st1" d="M482,42.5c0,0.2-0.1,0.4-0.3,0.5c-0.2,0.1-0.3,0.2-0.5,0.2c-0.3,0-0.4-0.1-0.6-0.3l-12.9-18l-7.1,7.1v10.2
		c0,0.2-0.1,0.4-0.2,0.5c-0.2,0.1-0.3,0.2-0.5,0.2c-0.2,0-0.4-0.1-0.5-0.2c-0.2-0.1-0.2-0.3-0.2-0.5V5.8c0-0.2,0.1-0.4,0.2-0.5
		c0.2-0.1,0.3-0.2,0.5-0.2c0.2,0,0.4,0.1,0.5,0.2c0.2,0.1,0.2,0.3,0.2,0.5v17.7L479,5c0.2-0.2,0.3-0.2,0.5-0.2
		c0.2,0,0.4,0.1,0.5,0.3s0.2,0.3,0.2,0.5c0,0.2-0.1,0.4-0.2,0.5l-19.4,19.4v4.4c0.1-0.1,0.4-0.4,0.8-0.8s0.8-0.9,1.3-1.4
		c0.5-0.5,1-1,1.6-1.6c0.6-0.5,1.1-1,1.6-1.5c0.5-0.5,0.9-0.8,1.2-1.2s0.6-0.5,0.7-0.5c0.3,0,0.5,0.1,0.7,0.3c0.2,0.3,0.7,1,1.4,2
		c0.8,1,1.6,2.2,2.6,3.6c1,1.4,2.1,2.8,3.2,4.4s2.2,3,3.1,4.3c0.9,1.3,1.7,2.4,2.3,3.4C481.7,41.9,482,42.4,482,42.5z"/>
	<path class="st3" d="M521.2,24c0,2.7-0.5,5.2-1.5,7.5c-1,2.3-2.4,4.4-4.1,6.1c-1.7,1.7-3.8,3.1-6.1,4.1c-2.3,1-4.8,1.5-7.5,1.5
		c-2.7,0-5.2-0.5-7.5-1.5s-4.4-2.4-6.1-4.1c-1.7-1.7-3.1-3.8-4.1-6.1c-1-2.3-1.5-4.8-1.5-7.5s0.5-5.2,1.5-7.5c1-2.3,2.4-4.4,4.1-6.1
		c1.7-1.7,3.8-3.1,6.1-4.1s4.8-1.5,7.5-1.5c2.7,0,5.2,0.5,7.5,1.5c2.3,1,4.4,2.4,6.1,4.1c1.7,1.7,3.1,3.8,4.1,6.1
		S521.2,21.3,521.2,24z M519.7,24c0-2.4-0.5-4.7-1.4-6.9c-0.9-2.1-2.2-4-3.8-5.6c-1.6-1.6-3.5-2.9-5.6-3.8s-4.4-1.4-6.9-1.4
		c-2.4,0-4.7,0.5-6.9,1.4c-2.1,0.9-4,2.2-5.6,3.8c-1.6,1.6-2.9,3.5-3.8,5.6c-0.9,2.1-1.4,4.4-1.4,6.9c0,2.4,0.5,4.7,1.4,6.9
		c0.9,2.1,2.2,4,3.8,5.6c1.6,1.6,3.5,2.9,5.6,3.8c2.1,0.9,4.4,1.4,6.9,1.4c2.4,0,4.7-0.5,6.9-1.4c2.1-0.9,4-2.2,5.6-3.8
		c1.6-1.6,2.9-3.5,3.8-5.6C519.3,28.7,519.7,26.4,519.7,24z"/>
</g>
</svg>
